<svg xmlns="http://www.w3.org/2000/svg" xmlns:xlink="http://www.w3.org/1999/xlink" width="500" zoomAndPan="magnify" viewBox="0 0 375 374.999991" height="500" preserveAspectRatio="xMidYMid meet" version="1.0"><defs><clipPath id="0c1d5bbf62"><path d="M 37.5 77.085938 L 209.023438 77.085938 L 209.023438 248.609375 L 37.5 248.609375 Z M 37.5 77.085938 " clip-rule="nonzero"/></clipPath><clipPath id="84dd42b220"><path d="M 54.75 77.085938 L 191.773438 77.085938 C 201.300781 77.085938 209.023438 84.8125 209.023438 94.335938 L 209.023438 231.359375 C 209.023438 240.886719 201.300781 248.609375 191.773438 248.609375 L 54.75 248.609375 C 45.222656 248.609375 37.5 240.886719 37.5 231.359375 L 37.5 94.335938 C 37.5 84.8125 45.222656 77.085938 54.75 77.085938 " clip-rule="nonzero"/></clipPath><clipPath id="4fbf3d680a"><path d="M 218.453125 148.769531 L 337 148.769531 L 337 242 L 218.453125 242 Z M 218.453125 148.769531 " clip-rule="nonzero"/></clipPath><clipPath id="498fcd77aa"><path d="M 228.203125 148.769531 L 327.75 148.769531 C 330.335938 148.769531 332.816406 149.796875 334.644531 151.625 C 336.472656 153.453125 337.5 155.933594 337.5 158.519531 L 337.5 231.832031 C 337.5 234.417969 336.472656 236.894531 334.644531 238.726562 C 332.816406 240.554688 330.335938 241.582031 327.75 241.582031 L 228.203125 241.582031 C 225.617188 241.582031 223.136719 240.554688 221.308594 238.726562 C 219.480469 236.894531 218.453125 234.417969 218.453125 231.832031 L 218.453125 158.519531 C 218.453125 155.933594 219.480469 153.453125 221.308594 151.625 C 223.136719 149.796875 225.617188 148.769531 228.203125 148.769531 " clip-rule="nonzero"/></clipPath><clipPath id="5dc603c3d4"><path d="M 218.453125 254.378906 L 269 254.378906 L 269 298 L 218.453125 298 Z M 218.453125 254.378906 " clip-rule="nonzero"/></clipPath><clipPath id="862a82c70d"><path d="M 222.953125 254.378906 L 264.21875 254.378906 C 265.410156 254.378906 266.554688 254.855469 267.398438 255.699219 C 268.242188 256.542969 268.71875 257.6875 268.71875 258.878906 L 268.71875 293.414062 C 268.71875 294.605469 268.242188 295.75 267.398438 296.59375 C 266.554688 297.4375 265.410156 297.914062 264.21875 297.914062 L 222.953125 297.914062 C 221.757812 297.914062 220.613281 297.4375 219.769531 296.59375 C 218.925781 295.75 218.453125 294.605469 218.453125 293.414062 L 218.453125 258.878906 C 218.453125 257.6875 218.925781 256.542969 219.769531 255.699219 C 220.613281 254.855469 221.757812 254.378906 222.953125 254.378906 " clip-rule="nonzero"/></clipPath><clipPath id="3e7c55c7c3"><path d="M 182.34375 254.378906 L 209.144531 254.378906 L 209.144531 278.5 L 182.34375 278.5 Z M 182.34375 254.378906 " clip-rule="nonzero"/></clipPath><clipPath id="2b1a71b994"><path d="M 185.34375 254.378906 L 206.023438 254.378906 C 206.816406 254.378906 207.582031 254.695312 208.144531 255.257812 C 208.707031 255.820312 209.023438 256.585938 209.023438 257.378906 L 209.023438 275.488281 C 209.023438 276.28125 208.707031 277.046875 208.144531 277.609375 C 207.582031 278.171875 206.816406 278.488281 206.023438 278.488281 L 185.34375 278.488281 C 184.550781 278.488281 183.785156 278.171875 183.222656 277.609375 C 182.660156 277.046875 182.34375 276.28125 182.34375 275.488281 L 182.34375 257.378906 C 182.34375 256.585938 182.660156 255.820312 183.222656 255.257812 C 183.785156 254.695312 184.550781 254.378906 185.34375 254.378906 " clip-rule="nonzero"/></clipPath></defs><g clip-path="url(#0c1d5bbf62)"><g clip-path="url(#84dd42b220)"><path fill="#000000" d="M 37.5 77.085938 L 209.023438 77.085938 L 209.023438 248.609375 L 37.5 248.609375 Z M 37.5 77.085938 " fill-opacity="1" fill-rule="nonzero"/></g></g><g clip-path="url(#4fbf3d680a)"><g clip-path="url(#498fcd77aa)"><path fill="#004aad" d="M 218.453125 148.769531 L 336.375 148.769531 L 336.375 242.570312 L 218.453125 242.570312 Z M 218.453125 148.769531 " fill-opacity="1" fill-rule="nonzero"/></g></g><g clip-path="url(#5dc603c3d4)"><g clip-path="url(#862a82c70d)"><path fill="#000000" d="M 218.453125 254.378906 L 269.371094 254.378906 L 269.371094 297.261719 L 218.453125 297.261719 Z M 218.453125 254.378906 " fill-opacity="1" fill-rule="nonzero"/></g></g><g clip-path="url(#3e7c55c7c3)"><g clip-path="url(#2b1a71b994)"><path fill="#004aad" d="M 182.34375 254.378906 L 209.144531 254.378906 L 209.144531 278.5 L 182.34375 278.5 Z M 182.34375 254.378906 " fill-opacity="1" fill-rule="nonzero"/></g></g></svg>