<svg xmlns="http://www.w3.org/2000/svg" xmlns:xlink="http://www.w3.org/1999/xlink" width="850" zoomAndPan="magnify" viewBox="0 0 637.5 374.999991" height="500" preserveAspectRatio="xMidYMid meet" version="1.0"><defs><g/><clipPath id="3e6d411f49"><path d="M 37.5 120.597656 L 141.660156 120.597656 L 141.660156 224.757812 L 37.5 224.757812 Z M 37.5 120.597656 " clip-rule="nonzero"/></clipPath><clipPath id="6d42833876"><path d="M 54.75 120.597656 L 124.410156 120.597656 C 128.984375 120.597656 133.375 122.414062 136.609375 125.648438 C 139.84375 128.882812 141.660156 133.269531 141.660156 137.847656 L 141.660156 207.507812 C 141.660156 212.082031 139.84375 216.46875 136.609375 219.703125 C 133.375 222.941406 128.984375 224.757812 124.410156 224.757812 L 54.75 224.757812 C 50.175781 224.757812 45.789062 222.941406 42.550781 219.703125 C 39.316406 216.46875 37.5 212.082031 37.5 207.507812 L 37.5 137.847656 C 37.5 133.269531 39.316406 128.882812 42.550781 125.648438 C 45.789062 122.414062 50.175781 120.597656 54.75 120.597656 " clip-rule="nonzero"/></clipPath><clipPath id="056cff609d"><path d="M 147.386719 164.128906 L 219 164.128906 L 219 221 L 147.386719 221 Z M 147.386719 164.128906 " clip-rule="nonzero"/></clipPath><clipPath id="d3d1a15369"><path d="M 157.136719 164.128906 L 209.933594 164.128906 C 212.519531 164.128906 214.996094 165.15625 216.824219 166.984375 C 218.65625 168.8125 219.683594 171.292969 219.683594 173.878906 L 219.683594 210.738281 C 219.683594 213.324219 218.65625 215.804688 216.824219 217.632812 C 214.996094 219.460938 212.519531 220.488281 209.933594 220.488281 L 157.136719 220.488281 C 154.550781 220.488281 152.070312 219.460938 150.242188 217.632812 C 148.414062 215.804688 147.386719 213.324219 147.386719 210.738281 L 147.386719 173.878906 C 147.386719 171.292969 148.414062 168.8125 150.242188 166.984375 C 152.070312 165.15625 154.550781 164.128906 157.136719 164.128906 " clip-rule="nonzero"/></clipPath><clipPath id="fa96906eff"><path d="M 147.386719 228.261719 L 178 228.261719 L 178 255 L 147.386719 255 Z M 147.386719 228.261719 " clip-rule="nonzero"/></clipPath><clipPath id="870d20deb8"><path d="M 151.886719 228.261719 L 173.414062 228.261719 C 175.898438 228.261719 177.914062 230.277344 177.914062 232.761719 L 177.914062 250.199219 C 177.914062 252.683594 175.898438 254.699219 173.414062 254.699219 L 151.886719 254.699219 C 149.402344 254.699219 147.386719 252.683594 147.386719 250.199219 L 147.386719 232.761719 C 147.386719 230.277344 149.402344 228.261719 151.886719 228.261719 " clip-rule="nonzero"/></clipPath><clipPath id="0c0c8c1d66"><path d="M 125.460938 228.261719 L 141.734375 228.261719 L 141.734375 242.910156 L 125.460938 242.910156 Z M 125.460938 228.261719 " clip-rule="nonzero"/></clipPath><clipPath id="ceb8dd5740"><path d="M 128.460938 228.261719 L 138.660156 228.261719 C 139.457031 228.261719 140.21875 228.578125 140.78125 229.140625 C 141.34375 229.703125 141.660156 230.464844 141.660156 231.261719 L 141.660156 239.902344 C 141.660156 240.695312 141.34375 241.460938 140.78125 242.023438 C 140.21875 242.585938 139.457031 242.902344 138.660156 242.902344 L 128.460938 242.902344 C 127.664062 242.902344 126.902344 242.585938 126.339844 242.023438 C 125.777344 241.460938 125.460938 240.695312 125.460938 239.902344 L 125.460938 231.261719 C 125.460938 230.464844 125.777344 229.703125 126.339844 229.140625 C 126.902344 228.578125 127.664062 228.261719 128.460938 228.261719 " clip-rule="nonzero"/></clipPath></defs><g clip-path="url(#3e6d411f49)"><g clip-path="url(#6d42833876)"><path fill="#000000" d="M 37.5 120.597656 L 141.660156 120.597656 L 141.660156 224.757812 L 37.5 224.757812 Z M 37.5 120.597656 " fill-opacity="1" fill-rule="nonzero"/></g></g><g clip-path="url(#056cff609d)"><g clip-path="url(#d3d1a15369)"><path fill="#004aad" d="M 147.386719 164.128906 L 218.996094 164.128906 L 218.996094 221.089844 L 147.386719 221.089844 Z M 147.386719 164.128906 " fill-opacity="1" fill-rule="nonzero"/></g></g><g clip-path="url(#fa96906eff)"><g clip-path="url(#870d20deb8)"><path fill="#000000" d="M 147.386719 228.261719 L 178.308594 228.261719 L 178.308594 254.300781 L 147.386719 254.300781 Z M 147.386719 228.261719 " fill-opacity="1" fill-rule="nonzero"/></g></g><g clip-path="url(#0c0c8c1d66)"><g clip-path="url(#ceb8dd5740)"><path fill="#004aad" d="M 125.460938 228.261719 L 141.734375 228.261719 L 141.734375 242.910156 L 125.460938 242.910156 Z M 125.460938 228.261719 " fill-opacity="1" fill-rule="nonzero"/></g></g><g fill="#000000" fill-opacity="1"><g transform="translate(235.118517, 219.521921)"><g><path d="M 44.628906 -56.90625 L 44.628906 -56.5 C 47.960938 -56.09375 50.808594 -53.570312 50.808594 -42.515625 L 50.808594 -16.664062 L 19.589844 -53.492188 C 18.453125 -55.199219 17.640625 -56.09375 17.152344 -56.90625 L 0.8125 -56.90625 C 3.414062 -55.605469 5.445312 -53.734375 8.210938 -50.484375 L 8.210938 -12.761719 C 8.210938 -1.707031 5.367188 -0.8125 2.03125 -0.40625 L 2.03125 0 L 16.015625 0 L 16.015625 -0.40625 C 12.679688 -0.8125 9.835938 -3.332031 9.835938 -14.390625 L 9.835938 -48.53125 L 52.597656 2.277344 L 52.757812 2.113281 C 52.597656 -0.8125 52.351562 -5.039062 52.351562 -13.496094 L 52.351562 -44.140625 C 52.351562 -55.199219 55.199219 -56.09375 58.53125 -56.5 L 58.53125 -56.90625 Z M 44.628906 -56.90625 "/></g></g></g><g fill="#000000" fill-opacity="1"><g transform="translate(294.860277, 219.521921)"><g><path d="M 24.875 -39.914062 C 11.789062 -39.914062 3.25 -31.621094 3.25 -19.671875 C 3.25 -7.480469 11.789062 0.570312 24.875 0.570312 C 37.964844 0.570312 46.5 -7.722656 46.5 -19.671875 C 46.5 -31.867188 37.964844 -39.914062 24.875 -39.914062 Z M 28.046875 -0.8125 C 18.289062 -0.8125 13.167969 -15.039062 13.167969 -25.851562 C 13.167969 -33.738281 15.851562 -38.53125 21.707031 -38.53125 C 31.542969 -38.53125 36.582031 -24.304688 36.582031 -13.414062 C 36.582031 -5.691406 33.898438 -0.8125 28.046875 -0.8125 Z M 28.046875 -0.8125 "/></g></g></g><g fill="#000000" fill-opacity="1"><g transform="translate(344.604433, 219.521921)"><g><path d="M 15.769531 1.300781 L 17.476562 1.300781 L 28.695312 -1.464844 L 28.695312 -1.789062 L 17.476562 -1.464844 L 17.476562 -37.476562 L 27.070312 -37.476562 L 27.476562 -39.425781 L 17.476562 -39.425781 L 17.476562 -50.238281 L 18.128906 -53.976562 L -0.40625 -45.359375 L -0.40625 -44.875 C 5.039062 -46.417969 7.152344 -46.90625 7.152344 -43.492188 L 7.152344 -5.609375 L 6.910156 -0.730469 Z M 15.769531 1.300781 "/></g></g></g><g fill="#000000" fill-opacity="1"><g transform="translate(375.328762, 219.521921)"><g><path d="M 42.351562 -7.964844 C 39.832031 -4.632812 34.222656 -3.414062 30.320312 -3.414062 C 20.566406 -3.414062 13.980469 -11.054688 13.820312 -22.597656 L 35.28125 -22.597656 C 45.6875 -22.597656 44.222656 -39.914062 26.664062 -39.914062 C 14.550781 -39.914062 3.25 -32.191406 3.25 -19.105469 C 3.25 -7.480469 12.113281 0.570312 25.121094 0.570312 C 33.738281 0.570312 40.320312 -3.089844 42.761719 -7.640625 Z M 23.980469 -38.613281 C 33.410156 -38.613281 35.6875 -24.226562 30.160156 -24.144531 L 13.820312 -23.980469 C 14.144531 -33.085938 18.453125 -38.613281 23.980469 -38.613281 Z M 23.980469 -38.613281 "/></g></g></g><g fill="#004aad" fill-opacity="1"><g transform="translate(419.864598, 219.521921)"><g><path d="M 57.800781 -10.242188 L 40.644531 -53.570312 C 38.9375 -57.800781 38.777344 -58.773438 38.777344 -59.261719 L 29.183594 -54.140625 L 27.640625 -53.246094 L 27.800781 -50.890625 L 10 -9.835938 C 6.992188 -2.84375 5.039062 -1.300781 1.625 -0.324219 L 1.625 0 L 16.582031 0 L 16.582031 -0.324219 C 12.03125 -1.300781 8.78125 -2.765625 11.789062 -9.753906 L 13.574219 -13.820312 L 44.628906 -13.820312 L 46.253906 -9.753906 C 49.101562 -2.601562 45.847656 -0.8125 40.160156 -0.324219 L 40.160156 0 L 65.847656 0 L 65.847656 -0.324219 C 62.1875 -0.8125 60.726562 -2.765625 57.800781 -10.242188 Z M 14.144531 -15.28125 L 29.671875 -51.132812 L 44.058594 -15.28125 Z M 14.144531 -15.28125 "/></g></g></g><g fill="#004aad" fill-opacity="1"><g transform="translate(487.328075, 219.521921)"><g><path d="M 26.988281 -39.914062 C 22.84375 -39.914062 19.429688 -39.019531 16.828125 -37.71875 L 16.828125 -59.992188 L 17.234375 -63.652344 L -0.8125 -55.199219 L -0.8125 -54.710938 C 4.390625 -56.253906 6.503906 -56.660156 6.503906 -53.410156 L 6.503906 -9.59375 C 6.503906 -4.308594 5.527344 -3.007812 2.601562 -2.277344 L 2.601562 -2.195312 C 9.671875 -0.0820312 16.746094 0.570312 21.136719 0.570312 C 39.183594 0.570312 47.882812 -9.917969 47.882812 -21.136719 C 47.882812 -32.109375 39.753906 -39.914062 26.988281 -39.914062 Z M 25.851562 -1.058594 C 22.191406 -1.058594 19.265625 -2.277344 16.828125 -4.390625 L 16.828125 -36.257812 C 18.535156 -37.3125 20.566406 -37.964844 22.925781 -37.964844 C 32.355469 -37.964844 37.394531 -27.152344 37.394531 -16.015625 C 37.394531 -6.503906 33.898438 -1.058594 25.851562 -1.058594 Z M 25.851562 -1.058594 "/></g></g></g><g fill="#004aad" fill-opacity="1"><g transform="translate(538.454014, 219.521921)"><g><path d="M 16.828125 -7.886719 L 16.828125 -59.992188 L 17.234375 -63.652344 L -0.8125 -55.199219 L -0.8125 -54.710938 C 4.390625 -56.253906 6.503906 -56.660156 6.503906 -53.410156 L 6.503906 -5.039062 L 5.773438 0 L 21.460938 0 L 21.460938 -0.324219 C 17.398438 -1.21875 16.828125 -3.496094 16.828125 -7.886719 Z M 16.828125 -7.886719 "/></g></g></g><g fill="#004aad" fill-opacity="1"><g transform="translate(561.131499, 219.521921)"><g><path d="M 42.351562 -7.964844 C 39.832031 -4.632812 34.222656 -3.414062 30.320312 -3.414062 C 20.566406 -3.414062 13.980469 -11.054688 13.820312 -22.597656 L 35.28125 -22.597656 C 45.6875 -22.597656 44.222656 -39.914062 26.664062 -39.914062 C 14.550781 -39.914062 3.25 -32.191406 3.25 -19.105469 C 3.25 -7.480469 12.113281 0.570312 25.121094 0.570312 C 33.738281 0.570312 40.320312 -3.089844 42.761719 -7.640625 Z M 23.980469 -38.613281 C 33.410156 -38.613281 35.6875 -24.226562 30.160156 -24.144531 L 13.820312 -23.980469 C 14.144531 -33.085938 18.453125 -38.613281 23.980469 -38.613281 Z M 23.980469 -38.613281 "/></g></g></g></svg>