<svg xmlns="http://www.w3.org/2000/svg" version="1.1" xmlns:xlink="http://www.w3.org/1999/xlink" xmlns:svgjs="http://svgjs.com/svgjs" width="1280" height="750" preserveAspectRatio="none" viewBox="0 0 1280 750"><g mask="url(&quot;#SvgjsMask1713&quot;)" fill="none"><rect width="1280" height="750" x="0" y="0" fill="rgba(199, 199, 199, 1)"></rect><path d="M0,459.279C111.239,484.836,238.508,581.896,330.848,514.809C425.086,446.344,369.596,292.262,388.166,177.269C401.23,96.371,423.126,21.006,423.823,-60.937C424.637,-156.527,438.151,-256.138,392.57,-340.164C342.193,-433.032,264.921,-530.683,160.452,-546.45C55.838,-562.239,-29.145,-467.308,-122.717,-417.935C-196.803,-378.844,-262.042,-334.232,-331.235,-287.017C-426.977,-221.686,-584.589,-200.981,-607.243,-87.308C-629.513,24.433,-496.831,104.868,-427.33,195.155C-373.204,265.469,-321.198,335.691,-245.718,382.344C-171.202,428.401,-85.377,439.664,0,459.279" fill="#b7b7b7"></path><path d="M1280 1081.695C1342.707 1082.571 1396.246 1045.26 1453.913 1020.614 1524.124 990.606 1623.32 990.73 1655.188 921.343 1687.042 851.987 1628.849 774.456 1599.285 704.094 1576.107 648.931 1543.605 600.665 1502.269 557.403 1462.679 515.968 1420.0720000000001 476.342 1365.365 459.272 1310.134 442.038 1252.523 452.91 1195.326 461.627 1129.737 471.622 1061.334 475.134 1007.433 513.819 946.082 557.85 882.283 616.593 874.716 691.729 867.168 766.671 925.207 830.842 969.358 891.866 1006.62 943.3679999999999 1054.941 982.649 1109.183 1015.796 1162.335 1048.277 1217.715 1080.825 1280 1081.695" fill="#d7d7d7"></path></g><defs><mask id="SvgjsMask1713"><rect width="1280" height="750" fill="#ffffff"></rect></mask></defs></svg>