<svg xmlns="http://www.w3.org/2000/svg" version="1.1" xmlns:xlink="http://www.w3.org/1999/xlink" xmlns:svgjs="http://svgjs.com/svgjs" width="500" height="1350" preserveAspectRatio="none" viewBox="0 0 500 1350"><g mask="url(&quot;#SvgjsMask1728&quot;)" fill="none"><rect width="500" height="1350" x="0" y="0" fill="rgba(199, 199, 199, 1)"></rect><path d="M0,437.918C80.16,426.764,143.105,372.364,211.653,329.339C281.015,285.803,364.912,256.476,403.851,184.433C443.628,110.839,426.894,22.795,422.491,-60.745C417.661,-152.388,421.213,-246.23,376.92,-326.603C326.8,-417.548,257.594,-508.764,158.494,-539.783C59.012,-570.921,-47.414,-529.389,-143.753,-489.577C-232.597,-452.862,-302.007,-388.477,-370.605,-321.131C-444.993,-248.102,-534.557,-181.567,-560.368,-80.569C-587.176,24.332,-571.311,143.147,-512.485,234.044C-456.171,321.059,-349.532,355.713,-253.225,394.025C-171.98,426.346,-86.604,449.969,0,437.918" fill="#bdbdbd"></path><path d="M500 1725.945C572.173 1724.191 635.222 1689.465 703.941 1667.338 799.5409999999999 1636.556 921.44 1649.998 982.8009999999999 1570.488 1043.893 1491.327 1032.201 1373.596 1004.866 1277.411 979.171 1186.994 910.123 1117.098 837.124 1057.8809999999999 772.893 1005.7760000000001 695.98 973.826 614.335 960.61 539.552 948.505 468.295 976.619 393.123 986.01 300.666 997.56 199.02800000000002 970.25 121.65199999999999 1022.1600000000001 38.09899999999999 1078.214-19.293000000000006 1173.696-34.81600000000003 1273.105-50.408000000000015 1372.96-25.770999999999958 1482.4 37.47800000000001 1561.227 96.58300000000003 1634.8890000000001 200.61900000000003 1645.723 289.58799999999997 1677.408 358.797 1702.056 426.555 1727.73 500 1725.945" fill="#d1d1d1"></path></g><defs><mask id="SvgjsMask1728"><rect width="500" height="1350" fill="#ffffff"></rect></mask></defs></svg>